<svg xmlns="http://www.w3.org/2000/svg" width="1138" height="828" viewBox="0 0 1138 828"><defs><style type="text/css"/></defs><g transform="translate(381.95583507816275 552) scale(1)"><g class="relationship"><g transform="translate(227.00037724743905 -498) rotate(0)" stroke-width="5" stroke="#fa28ff"><path d="M 58.695178092152055 -5.989663490593891 L 95.96898050729243 -9.793341079425122 A 40 40 0 0 1 100.02976931447472 -10 L 237.4998113762805 -10 L 374.96985343808626 -10 A 40 40 0 0 1 379.0306422452686 -9.79334107942512 L 391.5707436729065 -8.51366206436971 L 391.5707436729065 -8.51366206436971"/><polygon points="-24.8621506177483,0 -27.62461179749811,9.20820393249937 0,0 -27.62461179749811,-9.20820393249937" fill="#fa28ff" transform="translate(474.999622752561 0) rotate(5.826689442008371) translate(-59 0)" stroke="none"/></g><g transform="translate(464.5001886237195 -508) rotate(0) translate(0 -13)"><g transform="translate(0 0)"><g transform="translate(-85.36666870117188 0)" fill="#ffffff" stroke="#000000" stroke-width="0"><rect x="0" y="0" width="170.73333740234375" height="26" rx="5" ry="5" stroke="none"/><text xml:space="preserve" x="5" y="17.5" stroke="none" text-anchor="left" font-family="sans-serif" font-size="16" font-weight="normal" fill="#fa28ff">HAS_ACTIVE_RECORD</text></g></g></g></g><g class="relationship"><g transform="translate(227.00037724743905 -498) rotate(0)" stroke-width="5" stroke="#73d8ff"><path d="M 58.695178092152055 5.989663490593891 L 95.96898050729243 9.793341079425122 A 40 40 0 0 0 100.02976931447472 10 L 237.4998113762805 10 L 374.96985343808626 10 A 40 40 0 0 0 379.0306422452686 9.79334107942512 L 391.5707436729065 8.51366206436971 L 391.5707436729065 8.51366206436971"/><polygon points="-24.8621506177483,0 -27.62461179749811,9.20820393249937 0,0 -27.62461179749811,-9.20820393249937" fill="#73d8ff" transform="translate(474.999622752561 0) rotate(-5.826689442008371) translate(-59 0)" stroke="none"/></g><g transform="translate(464.5001886237195 -488) rotate(0) translate(0 -13)"><g transform="translate(0 0)"><g transform="translate(-55.400001525878906 0)" fill="#ffffff" stroke="#000000" stroke-width="0"><rect x="0" y="0" width="110.80000305175781" height="26" rx="5" ry="5" stroke="none"/><text xml:space="preserve" x="5" y="17.5" stroke="none" text-anchor="left" font-family="sans-serif" font-size="16" font-weight="normal" fill="#009ce0">HAS_RECORD</text></g></g></g></g><g class="relationship"><g transform="translate(702 -498) rotate(90)" stroke-width="5" stroke="#0062b1"><path d="M 59 0 L 275.6985188383186 0"/><polygon points="-24.8621506177483,0 -27.62461179749811,9.20820393249937 0,0 -27.62461179749811,-9.20820393249937" fill="#0062b1" transform="translate(300.56066945606693 0) rotate(0)" stroke="none"/></g><g transform="translate(702 -330.6507405808407) rotate(270) translate(0 -13)"><g transform="translate(0 0)"><g transform="translate(-97.23332977294922 0)" fill="#ffffff" stroke="#000000" stroke-width="0"><rect x="0" y="0" width="194.46665954589844" height="26" rx="5" ry="5" stroke="none"/><text xml:space="preserve" x="5" y="17.5" stroke="none" text-anchor="left" font-family="sans-serif" font-size="16" font-weight="normal" fill="#0062b1">HAS_PREVIOUS_RECORD</text></g></g></g></g><g class="relationship"><g transform="translate(702 -138.43933054393307) rotate(90)" stroke-width="5" stroke="#0062b1"><path d="M 59 0 L 275.6985188383186 0"/><polygon points="-24.8621506177483,0 -27.62461179749811,9.20820393249937 0,0 -27.62461179749811,-9.20820393249937" fill="#0062b1" transform="translate(300.56066945606693 0) rotate(0)" stroke="none"/></g><g transform="translate(702 28.90992887522623) rotate(270) translate(0 -13)"><g transform="translate(0 0)"><g transform="translate(-97.23332977294922 0)" fill="#ffffff" stroke="#000000" stroke-width="0"><rect x="0" y="0" width="194.46665954589844" height="26" rx="5" ry="5" stroke="none"/><text xml:space="preserve" x="5" y="17.5" stroke="none" text-anchor="left" font-family="sans-serif" font-size="16" font-weight="normal" fill="#0062b1">HAS_PREVIOUS_RECORD</text></g></g></g></g><g class="relationship"><g transform="translate(227.00037724743905 -498) rotate(37.12464446840558)" stroke-width="5" stroke="#73d8ff"><path d="M 59 0 L 511.8798376915954 0"/><polygon points="-24.8621506177483,0 -27.62461179749811,9.20820393249937 0,0 -27.62461179749811,-9.20820393249937" fill="#73d8ff" transform="translate(536.7419883093437 0) rotate(0)" stroke="none"/></g><g transform="translate(454.5885889748833 -325.7224531362267) rotate(37.12464446840558) translate(0 -13)"><g transform="translate(0 0)"><g transform="translate(-55.400001525878906 0)" fill="#ffffff" stroke="#000000" stroke-width="0"><rect x="0" y="0" width="110.80000305175781" height="26" rx="5" ry="5" stroke="none"/><text xml:space="preserve" x="5" y="17.5" stroke="none" text-anchor="left" font-family="sans-serif" font-size="16" font-weight="normal" fill="#009ce0">HAS_RECORD</text></g></g></g></g><g class="relationship"><g transform="translate(227.00037724743905 -498) rotate(56.55412979958625)" stroke-width="5" stroke="#73d8ff"><path d="M 59 0 L 777.9731826645763 0"/><polygon points="-24.8621506177483,0 -27.62461179749811,9.20820393249937 0,0 -27.62461179749811,-9.20820393249937" fill="#73d8ff" transform="translate(802.8353332823245 0) rotate(0)" stroke="none"/></g><g transform="translate(457.6488147543802 -148.8119054141104) rotate(56.55412979958625) translate(0 -13)"><g transform="translate(0 0)"><g transform="translate(-55.400001525878906 0)" fill="#ffffff" stroke="#000000" stroke-width="0"><rect x="0" y="0" width="110.80000305175781" height="26" rx="5" ry="5" stroke="none"/><text xml:space="preserve" x="5" y="17.5" stroke="none" text-anchor="left" font-family="sans-serif" font-size="16" font-weight="normal" fill="#009ce0">HAS_RECORD</text></g></g></g></g><g class="relationship"><g transform="translate(227.00037724743905 -498) rotate(180)" stroke-width="5" stroke="#000000"><path d="M 59 0 L 471.0940617078535 0"/><polygon points="-24.8621506177483,0 -27.62461179749811,9.20820393249937 0,0 -27.62461179749811,-9.20820393249937" fill="#000000" transform="translate(495.95621232560177 0) rotate(0)" stroke="none"/></g><g transform="translate(-38.046653606487695 -497.99999999999994) rotate(360) translate(0 -13)"><g transform="translate(0 0)"><g transform="translate(-66.63333511352539 0)" fill="#ffffff" stroke="#000000" stroke-width="0"><rect x="0" y="0" width="133.26667022705078" height="26" rx="5" ry="5" stroke="none"/><text xml:space="preserve" x="5" y="17.5" stroke="none" text-anchor="left" font-family="sans-serif" font-size="16" font-weight="normal" fill="#000000">{RELATIONSHIP}</text></g></g></g></g><g class="relationship"><g transform="translate(-24.19197594309395 -138.43933054393307) rotate(90)" stroke-width="5" stroke="#68bc00"><path d="M 59 0 L 275.6985188383186 0"/><polygon points="-24.8621506177483,0 -27.62461179749811,9.20820393249937 0,0 -27.62461179749811,-9.20820393249937" fill="#68bc00" transform="translate(300.56066945606693 0) rotate(0)" stroke="none"/></g><g transform="translate(-24.19197594309394 28.90992887522623) rotate(270) translate(0 -13)"><g transform="translate(0 0)"><g transform="translate(-97.23332977294922 0)" fill="#ffffff" stroke="#000000" stroke-width="0"><rect x="0" y="0" width="194.46665954589844" height="26" rx="5" ry="5" stroke="none"/><text xml:space="preserve" x="5" y="17.5" stroke="none" text-anchor="left" font-family="sans-serif" font-size="16" font-weight="normal" fill="#194d33">HAS_PREVIOUS_RECORD</text></g></g></g></g><g class="relationship"><g transform="translate(227.00037724743905 -498) rotate(109.25454048570016)" stroke-width="5" stroke="#a4dd00"><path d="M 58.695178092152055 -5.989663490593891 L 95.96898050729243 -9.793341079425122 A 40 40 0 0 1 100.02976931447472 -10 L 380.8651658987002 -10 L 661.7005624829255 -10 A 40 40 0 0 1 665.7613512901079 -9.793341079425124 L 678.3014527177459 -8.51366206436971 L 678.3014527177459 -8.51366206436971"/><polygon points="-24.8621506177483,0 -27.62461179749811,9.20820393249937 0,0 -27.62461179749811,-9.20820393249937" fill="#a4dd00" transform="translate(761.7303317974004 0) rotate(5.826689442008371) translate(-59 0)" stroke="none"/></g><g transform="translate(110.84482955840593 -135.14167594485968) rotate(289.2545404857002) translate(0 -13)"><g transform="translate(0 0)"><g transform="translate(-128.6999969482422 0)" fill="#ffffff" stroke="#000000" stroke-width="0"><rect x="0" y="0" width="257.3999938964844" height="26" rx="5" ry="5" stroke="none"/><text xml:space="preserve" x="5" y="17.5" stroke="none" text-anchor="left" font-family="sans-serif" font-size="16" font-weight="normal" fill="#68bc00">{RELATIONSHIP}__RECORDED_BY</text></g></g></g></g><g class="relationship"><g transform="translate(227.00037724743905 -498) rotate(109.25454048570016)" stroke-width="5" stroke="#fa28ff"><path d="M 58.695178092152055 5.989663490593891 L 95.96898050729243 9.793341079425122 A 40 40 0 0 0 100.02976931447472 10 L 380.8651658987002 10 L 661.7005624829255 10 A 40 40 0 0 0 665.7613512901079 9.793341079425124 L 678.3014527177459 8.51366206436971 L 678.3014527177459 8.51366206436971"/><polygon points="-24.8621506177483,0 -27.62461179749811,9.20820393249937 0,0 -27.62461179749811,-9.20820393249937" fill="#fa28ff" transform="translate(761.7303317974004 0) rotate(-5.826689442008371) translate(-59 0)" stroke="none"/></g><g transform="translate(91.96357174593902 -141.73698514300634) rotate(289.2545404857002) translate(0 -13)"><g transform="translate(0 0)"><g transform="translate(-167.14999389648438 0)" fill="#ffffff" stroke="#000000" stroke-width="0"><rect x="0" y="0" width="334.29998779296875" height="26" rx="5" ry="5" stroke="none"/><text xml:space="preserve" x="5" y="17.5" stroke="none" text-anchor="left" font-family="sans-serif" font-size="16" font-weight="normal" fill="#fa28ff">{RELATIONSHIP}__ACTIVELY_RECORDED_BY</text></g></g></g></g><g class="relationship"><g transform="translate(227.00037724743905 -498) rotate(124.93849994145651)" stroke-width="5" stroke="#a4dd00"><path d="M 59 0 L 354.7509742669187 0"/><polygon points="-24.8621506177483,0 -27.62461179749811,9.20820393249937 0,0 -27.62461179749811,-9.20820393249937" fill="#a4dd00" transform="translate(379.613124884667 0) rotate(0)" stroke="none"/></g><g transform="translate(108.52343827267451 -328.4102535296546) rotate(304.9384999414565) translate(0 -13)"><g transform="translate(0 0)"><g transform="translate(-128.6999969482422 0)" fill="#ffffff" stroke="#000000" stroke-width="0"><rect x="0" y="0" width="257.3999938964844" height="26" rx="5" ry="5" stroke="none"/><text xml:space="preserve" x="5" y="17.5" stroke="none" text-anchor="left" font-family="sans-serif" font-size="16" font-weight="normal" fill="#68bc00">{RELATIONSHIP}__RECORDED_BY</text></g></g></g></g><g class="relationship"><g transform="translate(-24.19197594309395 -138.43933054393307) rotate(-130.19177514289674)" stroke-width="5" stroke="#a4dd00"><path d="M 59 0 L 386.8355837472314 0"/><polygon points="-24.8621506177483,0 -27.62461179749811,9.20820393249937 0,0 -27.62461179749811,-9.20820393249937" fill="#a4dd00" transform="translate(411.6977343649797 0) rotate(0)" stroke="none"/></g><g transform="translate(-168.0515354558486 -308.7237076036177) rotate(49.808224857103255) translate(0 -13)"><g transform="translate(0 0)"><g transform="translate(-109.53333282470703 0)" fill="#ffffff" stroke="#000000" stroke-width="0"><rect x="0" y="0" width="219.06666564941406" height="26" rx="5" ry="5" stroke="none"/><text xml:space="preserve" x="5" y="17.5" stroke="none" text-anchor="left" font-family="sans-serif" font-size="16" font-weight="normal" fill="#68bc00">RECORDS__{RELATIONSHIP}</text></g></g></g></g><g class="relationship"><g transform="translate(-24.19197594309395 221.12133891213387) rotate(-112.89966955547453)" stroke-width="5" stroke="#a4dd00"><path d="M 58.695178092152055 -5.989663490593891 L 95.96898050729243 -9.793341079425122 A 40 40 0 0 1 100.02976931447472 -10 L 390.32293751309635 -10 L 680.6161057117179 -10 A 40 40 0 0 1 684.6768945189002 -9.793341079425124 L 697.2169959465382 -8.51366206436971 L 697.2169959465382 -8.51366206436971"/><polygon points="-24.8621506177483,0 -27.62461179749811,9.20820393249937 0,0 -27.62461179749811,-9.20820393249937" fill="#a4dd00" transform="translate(780.6458750261927 0) rotate(5.826689442008371) translate(-59 0)" stroke="none"/></g><g transform="translate(-185.285782008253 -134.5481441705358) rotate(67.10033044452547) translate(0 -13)"><g transform="translate(0 0)"><g transform="translate(-109.53333282470703 0)" fill="#ffffff" stroke="#000000" stroke-width="0"><rect x="0" y="0" width="219.06666564941406" height="26" rx="5" ry="5" stroke="none"/><text xml:space="preserve" x="5" y="17.5" stroke="none" text-anchor="left" font-family="sans-serif" font-size="16" font-weight="normal" fill="#68bc00">RECORDS__{RELATIONSHIP}</text></g></g></g></g><g class="relationship"><g transform="translate(-24.19197594309395 221.12133891213387) rotate(-112.89966955547453)" stroke-width="5" stroke="#fa28ff"><path d="M 58.695178092152055 5.989663490593891 L 95.96898050729243 9.793341079425122 A 40 40 0 0 0 100.02976931447472 10 L 390.32293751309635 10 L 680.6161057117179 10 A 40 40 0 0 0 684.6768945189002 9.793341079425124 L 697.2169959465382 8.51366206436971 L 697.2169959465382 8.51366206436971"/><polygon points="-24.8621506177483,0 -27.62461179749811,9.20820393249937 0,0 -27.62461179749811,-9.20820393249937" fill="#fa28ff" transform="translate(780.6458750261927 0) rotate(-5.826689442008371) translate(-59 0)" stroke="none"/></g><g transform="translate(-166.86202901300388 -142.33051691733033) rotate(67.10033044452547) translate(0 -13)"><g transform="translate(0 0)"><g transform="translate(-148.23333740234375 0)" fill="#ffffff" stroke="#000000" stroke-width="0"><rect x="0" y="0" width="296.4666748046875" height="26" rx="5" ry="5" stroke="none"/><text xml:space="preserve" x="5" y="17.5" stroke="none" text-anchor="left" font-family="sans-serif" font-size="16" font-weight="normal" fill="#fa28ff">ACTIVLEY_RECORDS__{RELATIONSHIP}</text></g></g></g></g><g class="node"><g fill="#ffffff" stroke="#000000" stroke-width="4"><circle cx="227.00037724743905" cy="-498" r="52"/></g><g transform="translate(227.00037724743905 -498)"><g transform="scale(0.3155686971591867) translate(0 -89)"><g transform="translate(0 0)"><g fill="#000000" font-family="sans-serif" font-size="50" font-weight="normal" text-anchor="middle"><text xml:space="preserve" x="0" y="44.5" stroke="none">Recorded</text><text xml:space="preserve" x="0" y="104.5" stroke="none" text-anchor="middle">Node</text></g></g><g transform="translate(0 124)"><g transform="translate(-92.69999694824219 0)"><g fill="#ffffff" stroke="#000000" stroke-width="4"><rect x="0" y="0" width="185.39999389648438" height="54" rx="27" ry="27"/><text xml:space="preserve" x="27" y="38" stroke="none" font-family="sans-serif" font-size="40" font-weight="normal" fill="#000000">Person</text></g></g></g></g></g></g><g class="node"><g fill="#73d8ff" stroke="#0062b1" stroke-width="4"><circle cx="702" cy="-498" r="52"/></g><g transform="translate(702 -498)"><g transform="scale(0.302735072265625) translate(0 0)"><g transform="translate(0 0)"><g font-family="sans-serif" font-size="50" font-weight="normal" fill="#0062b1" text-anchor="middle"><text xml:space="preserve" x="0" y="14.5" stroke="none">NodeRecord</text></g></g></g></g></g><g class="node"><g fill="#73d8ff" stroke="#0062b1" stroke-width="4"><circle cx="702" cy="-138.43933054393307" r="52"/></g><g transform="translate(702 -138.43933054393307)"><g transform="scale(0.302735072265625) translate(0 0)"><g transform="translate(0 0)"><g font-family="sans-serif" font-size="50" font-weight="normal" fill="#0062b1" text-anchor="middle"><text xml:space="preserve" x="0" y="14.5" stroke="none">NodeRecord</text></g></g></g></g></g><g class="node"><g fill="#73d8ff" stroke="#0062b1" stroke-width="4"><circle cx="702" cy="221.12133891213387" r="52"/></g><g transform="translate(702 221.12133891213387)"><g transform="scale(0.302735072265625) translate(0 0)"><g transform="translate(0 0)"><g font-family="sans-serif" font-size="50" font-weight="normal" fill="#0062b1" text-anchor="middle"><text xml:space="preserve" x="0" y="14.5" stroke="none">NodeRecord</text></g></g></g></g></g><g class="node"><g fill="#ffffff" stroke="#000000" stroke-width="4"><circle cx="-327.95583507816275" cy="-498" r="52"/></g><g transform="translate(-327.95583507816275 -498)"><g transform="scale(0.3155686971591867) translate(0 -89)"><g transform="translate(0 0)"><g fill="#000000" font-family="sans-serif" font-size="50" font-weight="normal" text-anchor="middle"><text xml:space="preserve" x="0" y="44.5" stroke="none">Recorded</text><text xml:space="preserve" x="0" y="104.5" stroke="none" text-anchor="middle">Node</text></g></g><g transform="translate(0 124)"><g transform="translate(-92.69999694824219 0)"><g fill="#ffffff" stroke="#000000" stroke-width="4"><rect x="0" y="0" width="185.39999389648438" height="54" rx="27" ry="27"/><text xml:space="preserve" x="27" y="38" stroke="none" font-family="sans-serif" font-size="40" font-weight="normal" fill="#000000">Person</text></g></g></g></g></g></g><g class="node"><g fill="#a4dd00" stroke="#68bc00" stroke-width="4"><circle cx="-24.19197594309395" cy="-138.43933054393307" r="52"/></g><g transform="translate(-24.19197594309395 -138.43933054393307)"><g transform="scale(0.3125006875) translate(0 0)"><g transform="translate(0 0)"><g font-family="sans-serif" font-size="50" font-weight="normal" fill="#194d33" text-anchor="middle"><text xml:space="preserve" x="0" y="14.5" stroke="none">EdgeRecord</text></g></g></g></g></g><g class="node"><g fill="#a4dd00" stroke="#68bc00" stroke-width="4"><circle cx="-24.19197594309395" cy="221.12133891213387" r="52"/></g><g transform="translate(-24.19197594309395 221.12133891213387)"><g transform="scale(0.3125006875) translate(0 0)"><g transform="translate(0 0)"><g font-family="sans-serif" font-size="50" font-weight="normal" fill="#194d33" text-anchor="middle"><text xml:space="preserve" x="0" y="14.5" stroke="none">EdgeRecord</text></g></g></g></g></g></g></svg>